# xmcd CD database file
#
# Track frame offsets:
#	150
#	20469
#	45545
#	67437
#	95232
#	120857
#	147220
#	166010
#	179240
#	212758
#
# Disc length: 3020 seconds
#
# Revision: 1
# Processed by: cddbd v1.4PL0 Copyright (c) Steve Scherf et al.
# Submitted via: CDex 1.50beta10
#
DISCID=920bca0a
DTITLE=Mike Mainieri - Man Behind Bars
DYEAR=1995
DGENRE=Jazz
TTITLE0=ESP
TTITLE1=Trinary Motion
TTITLE2=Push-Pull
TTITLE3=Equinox
TTITLE4=Satyr Dance
TTITLE5=Momento No.1
TTITLE6=The Nearness of You
TTITLE7=Momento No.2
TTITLE8=All the Things You Are
TTITLE9=Binary Motion
EXTD=YEAR: 1995
EXTT0=
EXTT1=
EXTT2=
EXTT3=
EXTT4=
EXTT5=
EXTT6=
EXTT7=
EXTT8=
EXTT9=
PLAYORDER=
